<mxfile host="65bd71144e" modified="2020-11-21T03:52:30.531Z" agent="5.0 (Windows NT 10.0; Win64; x64) AppleWebKit/537.36 (KHTML, like Gecko) Code/1.51.1 Chrome/83.0.4103.122 Electron/9.3.3 Safari/537.36" version="13.6.5" etag="QCGVwQdt2R3tGc30T3IB">
    <diagram id="IEafOQvuGnfAoQOvBPOS" name="ページ1">
        <mxGraphModel dx="1444" dy="790" grid="1" gridSize="10" guides="1" tooltips="1" connect="1" arrows="1" fold="1" page="1" pageScale="1" pageWidth="827" pageHeight="1169" math="0" shadow="0">
            <root>
                <mxCell id="0"/>
                <mxCell id="1" parent="0"/>
                <mxCell id="2" value="：財務３表" style="html=1;fontStyle=4" vertex="1" parent="1">
                    <mxGeometry x="510" y="300" width="200" height="50" as="geometry"/>
                </mxCell>
                <mxCell id="9" value="：分析対象会社" style="html=1;fontStyle=4" vertex="1" parent="1">
                    <mxGeometry x="120" y="190" width="200" height="50" as="geometry"/>
                </mxCell>
                <mxCell id="12" value="" style="endArrow=none;html=1;entryX=0;entryY=0.5;entryDx=0;entryDy=0;exitX=1;exitY=0.5;exitDx=0;exitDy=0;" edge="1" parent="1" source="9" target="2">
                    <mxGeometry width="50" height="50" relative="1" as="geometry">
                        <mxPoint x="390" y="430" as="sourcePoint"/>
                        <mxPoint x="440" y="380" as="targetPoint"/>
                    </mxGeometry>
                </mxCell>
                <mxCell id="13" value="" style="endArrow=none;html=1;entryX=0;entryY=0.5;entryDx=0;entryDy=0;exitX=1;exitY=0.5;exitDx=0;exitDy=0;" edge="1" parent="1" source="15" target="2">
                    <mxGeometry width="50" height="50" relative="1" as="geometry">
                        <mxPoint x="330" y="225" as="sourcePoint"/>
                        <mxPoint x="490" y="295" as="targetPoint"/>
                    </mxGeometry>
                </mxCell>
                <mxCell id="15" value="：各種指標" style="html=1;fontStyle=4" vertex="1" parent="1">
                    <mxGeometry x="120" y="420" width="200" height="50" as="geometry"/>
                </mxCell>
                <mxCell id="16" value="" style="endArrow=none;html=1;entryX=0.5;entryY=0;entryDx=0;entryDy=0;" edge="1" parent="1" source="9" target="15">
                    <mxGeometry width="50" height="50" relative="1" as="geometry">
                        <mxPoint x="330" y="225" as="sourcePoint"/>
                        <mxPoint x="500" y="305" as="targetPoint"/>
                    </mxGeometry>
                </mxCell>
            </root>
        </mxGraphModel>
    </diagram>
</mxfile>